<svg width="20" height="20" viewBox="0 0 20 20" fill="none" xmlns="http://www.w3.org/2000/svg">
<path d="M10 15L6.66667 11.6667L7.83333 10.5L9.16667 11.8333V8.33333H10.8333V11.8333L12.1667 10.5L13.3333 11.6667L10 15ZM15.8333 6.66667V15.8333H4.16667V6.66667H15.8333ZM15.8333 17.5C16.2917 17.5 16.684 17.3368 17.0104 17.0104C17.3368 16.684 17.5 16.2917 17.5 15.8333V5.4375C17.5 5.24306 17.4688 5.05556 17.4062 4.875C17.3438 4.69444 17.25 4.52778 17.125 4.375L16.0833 3.10417C15.9306 2.90972 15.7396 2.76042 15.5104 2.65625C15.2812 2.55208 15.0417 2.5 14.7917 2.5H5.20833C4.95833 2.5 4.71875 2.55208 4.48958 2.65625C4.26042 2.76042 4.06944 2.90972 3.91667 3.10417L2.875 4.375C2.75 4.52778 2.65625 4.69444 2.59375 4.875C2.53125 5.05556 2.5 5.24306 2.5 5.4375V15.8333C2.5 16.2917 2.66319 16.684 2.98958 17.0104C3.31597 17.3368 3.70833 17.5 4.16667 17.5H15.8333ZM15.5 5H4.5L5.20833 4.16667H14.7917L15.5 5Z" fill="#022ABF"/>
</svg>
