<svg width="20" height="20" viewBox="0 0 20 20" fill="none" xmlns="http://www.w3.org/2000/svg">
<path d="M3.3927 9.76031H14.1998L11.8365 7.39702C11.5165 7.077 11.5165 6.56003 11.8365 6.24C11.9898 6.08635 12.1979 6 12.415 6C12.6321 6 12.8402 6.08635 12.9935 6.24L16.76 10.0065C17.08 10.3265 17.08 10.8435 16.76 11.1635L12.9935 14.93C12.6735 15.25 12.1565 15.25 11.8365 14.93C11.5165 14.61 11.5165 14.093 11.8365 13.773L14.1998 11.4015H3.3927C2.94138 11.4015 2.57212 11.0322 2.57212 10.5809C2.57212 10.1296 2.94138 9.76031 3.3927 9.76031Z" fill="#022ABF"/>
</svg>
