<svg width="20" height="20" viewBox="0 0 20 20" fill="white" xmlns="http://www.w3.org/2000/svg">
<path d="M16.6073 9.76031H5.80024L8.16351 7.39702C8.48354 7.077 8.48354 6.56003 8.16351 6.24C8.01021 6.08635 7.80206 6 7.585 6C7.36794 6 7.1598 6.08635 7.00649 6.24L3.24002 10.0065C2.91999 10.3265 2.91999 10.8435 3.24002 11.1635L7.00649 14.93C7.32652 15.25 7.84349 15.25 8.16351 14.93C8.48354 14.61 8.48354 14.093 8.16351 13.773L5.80024 11.4015H16.6073C17.0586 11.4015 17.4279 11.0322 17.4279 10.5809C17.4279 10.1296 17.0586 9.76031 16.6073 9.76031Z" />
</svg>
