<svg width="20" height="20" viewBox="0 0 20 20" fill="none" xmlns="http://www.w3.org/2000/svg">
<path d="M2.59898 14.0554L1.78313 13.4771L1.78313 13.4771L2.59898 14.0554ZM3.68927 10.7422L2.68927 10.7308V10.7422H3.68927ZM3.71215 8.73897L4.71215 8.75039V8.73897H3.71215ZM17.4069 14.0715L18.2339 13.5094L18.2339 13.5094L17.4069 14.0715ZM16.3576 10.7422L15.3576 10.7302V10.7422H16.3576ZM16.3805 8.83824L17.3805 8.85026V8.83824H16.3805ZM7.5 16.9999C6.94772 16.9999 6.5 17.4476 6.5 17.9999C6.5 18.5522 6.94772 18.9999 7.5 18.9999V16.9999ZM12.5 18.9999C13.0523 18.9999 13.5 18.5522 13.5 17.9999C13.5 17.4476 13.0523 16.9999 12.5 16.9999V18.9999ZM3.41482 14.6337C4.05397 13.7319 4.68927 12.3857 4.68927 10.7422H2.68927C2.68927 11.8636 2.25358 12.8134 1.78313 13.4771L3.41482 14.6337ZM4.6892 10.7536L4.71209 8.75039L2.71222 8.72755L2.68933 10.7308L4.6892 10.7536ZM18.2339 13.5094C17.7831 12.8461 17.3576 11.8844 17.3576 10.7422H15.3576C15.3576 12.3839 15.9661 13.7308 16.5798 14.6336L18.2339 13.5094ZM17.3575 10.7542L17.3804 8.85026L15.3805 8.82622L15.3577 10.7302L17.3575 10.7542ZM17.3805 8.83824C17.3805 4.57569 14.1403 1 10 1V3C12.9074 3 15.3805 5.54748 15.3805 8.83824H17.3805ZM17.025 15.9999C17.7832 15.9999 18.2171 15.4365 18.3779 15.0316C18.5427 14.6167 18.5804 14.0192 18.2339 13.5094L16.5798 14.6336C16.5185 14.5435 16.503 14.4604 16.5005 14.4123C16.498 14.3652 16.5058 14.3269 16.5191 14.2934C16.5317 14.2617 16.563 14.2002 16.6379 14.1372C16.7203 14.0678 16.8554 13.9999 17.025 13.9999V15.9999ZM4.71215 8.73897C4.71215 5.50304 7.14373 3 10 3V1C5.9109 1 2.71215 4.53125 2.71215 8.73897H4.71215ZM2.97591 13.9999C3.1491 13.9999 3.28575 14.0705 3.36749 14.1405C3.44158 14.2041 3.47127 14.265 3.48272 14.2947C3.49494 14.3264 3.50235 14.3633 3.49933 14.4098C3.49626 14.4573 3.47976 14.5421 3.41483 14.6337L1.78313 13.4771C1.42051 13.9887 1.45566 14.5963 1.6164 15.0136C1.77275 15.4195 2.20525 15.9999 2.97591 15.9999V13.9999ZM17.025 13.9999H2.97591V15.9999H17.025V13.9999ZM7.5 18.9999H12.5V16.9999H7.5V18.9999Z" fill="#022ABF"/>
</svg>
