<svg width="36" height="36" viewBox="0 0 36 36" fill="none" xmlns="http://www.w3.org/2000/svg">
<path fill-rule="evenodd" clip-rule="evenodd" d="M28.064 16.783C28.0305 15.0665 28.0095 13.3498 28.001 11.633C27.0853 11.1749 26.2131 10.6347 25.395 10.019C23.852 8.846 22 6.949 22 4.449C22 2.221 23.684 0 26.188 0C27.35 0 28.29 0.464 29 1.157C29.709 0.464 30.65 0 31.813 0C34.316 0 36 2.223 36 4.448C36 6.871 34.139 8.771 32.611 9.951C31.7904 10.5804 30.9172 11.1382 30.001 11.618C30.007 13.362 30.035 15.027 30.061 16.603C30.121 20.058 30.171 23.087 29.962 25.588C29.644 29.376 28.705 32.416 25.897 34.061C23.136 35.678 19.056 36.286 15.677 35.875C13.981 35.669 12.362 35.195 11.137 34.377C10.246 33.782 9.539 32.981 9.207 31.977C7.13 31.882 5.064 31.503 3.43 30.825C1.665 30.093 0 28.825 0 26.84V7.122H0.00299978C0.00102973 7.08136 2.96585e-05 7.04068 0 7C0 4.239 4.477 2 10 2C15.523 2 20 4.239 20 7C20 7.04 19.999 7.082 19.997 7.122H20V13.071C21.6659 13.3119 23.1893 14.145 24.2911 15.4176C25.3928 16.6902 25.9991 18.3172 25.999 20.0004C25.9989 21.6837 25.3923 23.3106 24.2904 24.583C23.1885 25.8555 21.665 26.6883 19.999 26.929C19.953 28.944 18.342 30.219 16.565 30.943C15.095 31.541 13.285 31.871 11.435 31.969C11.635 32.237 11.905 32.485 12.249 32.714C13.119 33.296 14.399 33.705 15.919 33.89C18.97 34.261 22.586 33.682 24.887 32.335C26.798 31.215 27.662 29.08 27.969 25.421C28.17 23.019 28.122 20.159 28.064 16.783ZM17.996 26.929C17.952 27.707 17.323 28.474 15.81 29.09C14.285 29.711 12.178 30.023 10.01 29.999C9.70314 29.9954 9.3964 29.9851 9.09 29.968V11.98C9.39 11.993 9.693 12 9.999 12C13.27 12 16.175 11.215 17.999 10V13.07C16.3323 13.3097 14.8078 14.142 13.705 15.4145C12.6021 16.687 11.9949 18.3143 11.9945 19.9982C11.9941 21.6821 12.6007 23.3097 13.703 24.5826C14.8052 25.8556 16.3294 26.6886 17.996 26.929ZM18 7C18 7.215 17.774 7.948 16.177 8.747C14.699 9.485 12.518 10 10 10C7.482 10 5.3 9.485 3.823 8.747C2.226 7.948 2 7.215 2 7C2 6.785 2.226 6.052 3.823 5.253C5.301 4.515 7.482 4 10 4C12.518 4 14.7 4.515 16.177 5.253C17.774 6.052 18 6.785 18 7ZM17.5 20.5L19 15.5L20.5 20.5L19 22.5L17.5 20.5Z" fill="#022ABF"/>
</svg>
