<svg width="24" height="24" viewBox="0 0 24 24" fill="none" xmlns="http://www.w3.org/2000/svg">
<path d="M12.0016 13.0496L6.75156 18.2996C6.60156 18.4496 6.42656 18.5246 6.22656 18.5246C6.02656 18.5246 5.85156 18.4496 5.70156 18.2996C5.55156 18.1496 5.47656 17.9746 5.47656 17.7746C5.47656 17.5746 5.55156 17.3996 5.70156 17.2496L10.9516 11.9996L5.70156 6.74961C5.55156 6.59961 5.47656 6.42461 5.47656 6.22461C5.47656 6.02461 5.55156 5.84961 5.70156 5.69961C5.85156 5.54961 6.02656 5.47461 6.22656 5.47461C6.42656 5.47461 6.60156 5.54961 6.75156 5.69961L12.0016 10.9496L17.2516 5.69961C17.4016 5.54961 17.5766 5.47461 17.7766 5.47461C17.9766 5.47461 18.1516 5.54961 18.3016 5.69961C18.4516 5.84961 18.5266 6.02461 18.5266 6.22461C18.5266 6.42461 18.4516 6.59961 18.3016 6.74961L13.0516 11.9996L18.3016 17.2496C18.4516 17.3996 18.5266 17.5746 18.5266 17.7746C18.5266 17.9746 18.4516 18.1496 18.3016 18.2996C18.1516 18.4496 17.9766 18.5246 17.7766 18.5246C17.5766 18.5246 17.4016 18.4496 17.2516 18.2996L12.0016 13.0496Z" fill="#AAB1CC"/>
</svg>
