<svg width="21" height="20" viewBox="0 0 21 20" fill="none" xmlns="http://www.w3.org/2000/svg">
<g id="icons">
<path id="Vector" d="M11.3338 16.6654C11.5699 16.6654 11.7678 16.5855 11.9275 16.4258C12.0872 16.2661 12.1671 16.0681 12.1671 15.832V10.832L17.1463 4.47786C17.3407 4.24175 17.3685 3.99175 17.2296 3.72786C17.0907 3.46398 16.8754 3.33203 16.5838 3.33203H4.4171C4.12543 3.33203 3.91016 3.46398 3.77127 3.72786C3.63238 3.99175 3.66016 4.24175 3.8546 4.47786L8.83377 10.832V15.832C8.83377 16.0681 8.91363 16.2661 9.07335 16.4258C9.23307 16.5855 9.43099 16.6654 9.6671 16.6654H11.3338ZM10.5004 10.9154L5.50043 4.58203H15.5004L10.5004 10.9154Z" fill="white"/>
</g>
</svg>
