<svg width="37" height="34" viewBox="0 0 37 34" fill="none" xmlns="http://www.w3.org/2000/svg">
<path d="M22.5364 34C21.5553 34 20.6163 33.7968 19.7193 33.3905C18.8223 32.9842 18.0515 32.4038 17.4068 31.6494L8.82955 21.6593C8.52121 21.2675 8.38779 20.8405 8.42927 20.3782C8.47076 19.9159 8.68827 19.5314 9.08182 19.2247L9.83864 18.679C10.3992 18.2593 11.0299 18.0354 11.7307 18.0074C12.4314 17.9794 13.0761 18.1613 13.6648 18.5531L15.9773 20.0222V3.77778C15.9773 3.30206 16.1387 2.90357 16.4616 2.58232C16.7845 2.26107 17.1837 2.09988 17.6591 2.09877C18.1356 2.09877 18.5353 2.25995 18.8582 2.58232C19.1811 2.90469 19.342 3.30318 19.3409 3.77778V23.0864C19.3409 23.758 19.0466 24.2477 18.458 24.5556C17.8693 24.8634 17.2947 24.8354 16.7341 24.4716L14.3795 22.9605L20.4341 30.0543C20.6023 30.2502 20.7985 30.3974 21.0227 30.4959C21.247 30.5944 21.4852 30.6431 21.7375 30.642H30.2727C31.1977 30.642 31.9899 30.3129 32.6491 29.6547C33.3084 28.9965 33.6375 28.2063 33.6364 27.284V15.5309C33.6364 15.0551 33.7978 14.6567 34.1207 14.3354C34.4436 14.0142 34.8428 13.853 35.3182 13.8519C35.7947 13.8519 36.1944 14.013 36.5173 14.3354C36.8402 14.6578 37.0011 15.0563 37 15.5309V27.284C37 29.1309 36.3413 30.7119 35.0239 32.0272C33.7064 33.3424 32.1227 34 30.2727 34H22.5364ZM23.5455 8.81481C24.022 8.81481 24.4217 8.976 24.7446 9.29837C25.0675 9.62074 25.2284 10.0192 25.2273 10.4938V17.2099C25.2273 17.6856 25.0658 18.0846 24.7429 18.407C24.42 18.7294 24.0208 18.89 23.5455 18.8889C23.0689 18.8889 22.6698 18.7277 22.348 18.4053C22.0262 18.083 21.8648 17.6845 21.8636 17.2099V10.4938C21.8636 10.0181 22.0251 9.61962 22.348 9.29837C22.6709 8.97712 23.0701 8.81593 23.5455 8.81481ZM29.4318 10.4938C29.9083 10.4938 30.308 10.655 30.631 10.9774C30.9539 11.2998 31.1148 11.6982 31.1136 12.1728V17.2099C31.1136 17.6856 30.9522 18.0846 30.6293 18.407C30.3064 18.7294 29.9072 18.89 29.4318 18.8889C28.9553 18.8889 28.5562 18.7277 28.2344 18.4053C27.9126 18.083 27.7511 17.6845 27.75 17.2099V12.1728C27.75 11.6971 27.9115 11.2986 28.2344 10.9774C28.5573 10.6561 28.9564 10.4949 29.4318 10.4938ZM5.88636 13.8519C4.23258 13.8519 2.83779 13.2855 1.702 12.1527C0.566214 11.0199 -0.00111955 9.65544 1.6586e-06 8.05926C1.6586e-06 7.10782 0.189487 6.2823 0.568456 5.58272C0.947426 4.88313 1.83711 3.7358 3.2375 2.14074L4.625 0.587654C4.96136 0.195885 5.38182 0 5.88636 0C6.39091 0 6.81136 0.195885 7.14773 0.587654L8.53523 2.18272C9.96477 3.83374 10.8617 4.99506 11.2261 5.66667C11.5905 6.33827 11.7727 7.1358 11.7727 8.05926C11.7727 9.65432 11.1981 11.0188 10.0489 12.1527C8.89962 13.2866 7.51212 13.853 5.88636 13.8519ZM5.88636 10.4938C6.58712 10.4938 7.18305 10.256 7.67414 9.78025C8.16523 9.30453 8.41021 8.73086 8.40909 8.05926C8.40909 7.58354 8.28968 7.15651 8.05086 6.77817C7.81205 6.39984 7.16118 5.62357 6.09827 4.44938L5.88636 4.23951L5.67614 4.44938C4.77917 5.45679 4.16923 6.21235 3.84632 6.71605C3.52341 7.21975 3.36252 7.66749 3.36364 8.05926C3.36364 8.73086 3.60189 9.30453 4.07841 9.78025C4.55492 10.256 5.15758 10.4938 5.88636 10.4938Z" fill="#022ABF"/>
</svg>
