<svg width="39" height="35" viewBox="0 0 39 35" fill="none" xmlns="http://www.w3.org/2000/svg">
<path d="M0 9.45946V3.78378C0 2.74324 0.364 1.85279 1.092 1.11243C1.82 0.372072 2.69409 0.00126126 3.71429 0H33.4286C34.45 0 35.3247 0.37081 36.0527 1.11243C36.7807 1.85405 37.1441 2.7445 37.1429 3.78378V15.1351H33.4286V3.78378H3.71429V9.45946H0ZM3.71429 30.2703C2.69286 30.2703 1.81876 29.9001 1.092 29.1597C0.365238 28.4194 0.0012381 27.5283 0 26.4865V20.8108H3.71429V26.4865H16.7143V30.2703H3.71429ZM29.7143 35L26.8821 32.5405C24.1583 30.1757 22.4015 28.4648 21.6116 27.4078C20.8217 26.3509 20.4273 25.2555 20.4286 24.1216C20.4286 22.7027 20.9238 21.4812 21.9143 20.457C22.9048 19.4329 24.1119 18.9202 25.5357 18.9189C26.3405 18.9189 27.1069 19.1081 27.8349 19.4865C28.5629 19.8649 29.1893 20.4167 29.7143 21.1419C30.2095 20.4167 30.8211 19.8649 31.5491 19.4865C32.2771 19.1081 33.0584 18.9189 33.8929 18.9189C35.2857 18.9189 36.4854 19.4316 37.492 20.457C38.4986 21.4824 39.0012 22.704 39 24.1216C39 25.2568 38.5976 26.3528 37.7929 27.4097C36.9881 28.4667 35.2238 30.1769 32.5 32.5405L29.7143 35ZM29.7143 29.9865L31.0143 28.8986C32.7476 27.3851 33.8929 26.3213 34.45 25.707C35.0071 25.0928 35.2857 24.5643 35.2857 24.1216C35.2857 23.7432 35.1464 23.4122 34.8679 23.1284C34.5893 22.8446 34.2643 22.7027 33.8929 22.7027C33.6452 22.7027 33.4205 22.7582 33.2187 22.8692C33.0169 22.9802 32.7773 23.1612 32.5 23.4122L29.7143 26.1081L26.8821 23.4122C26.6036 23.1599 26.364 22.9783 26.1634 22.8673C25.9629 22.7563 25.7536 22.7014 25.5357 22.7027C25.1333 22.7027 24.8009 22.8446 24.5384 23.1284C24.276 23.4122 24.1441 23.7432 24.1429 24.1216C24.1429 24.5631 24.414 25.0915 24.9563 25.707C25.4986 26.3225 26.6358 27.3864 28.3679 28.8986L29.7143 29.9865ZM9.28571 24.5946C8.91428 24.5946 8.58186 24.5082 8.28843 24.3354C7.995 24.1626 7.77028 23.9022 7.61428 23.5541L4.41071 17.027H1.85714C1.33095 17.027 0.890191 16.8454 0.534857 16.4822C0.179524 16.1189 0.0012381 15.6699 0 15.1351C0 14.5991 0.178286 14.1501 0.534857 13.7881C0.891429 13.4261 1.33219 13.2445 1.85714 13.2432H5.57143C5.9119 13.2432 6.22948 13.3378 6.52414 13.527C6.81881 13.7162 7.0429 13.9685 7.19643 14.2838L9.28571 18.4932L15.0429 6.71622C15.1976 6.4009 15.4298 6.16441 15.7393 6.00676C16.0488 5.8491 16.3738 5.77027 16.7143 5.77027C17.0548 5.77027 17.3798 5.8491 17.6893 6.00676C17.9988 6.16441 18.2309 6.4009 18.3857 6.71622L21.5429 13.2432H26C26.5262 13.2432 26.9676 13.4249 27.3241 13.7881C27.6807 14.1514 27.8584 14.6004 27.8571 15.1351C27.8571 15.6712 27.6789 16.1208 27.3223 16.4841C26.9657 16.8473 26.525 17.0283 26 17.027H20.4286C20.0571 17.027 19.7247 16.9406 19.4313 16.7678C19.1379 16.595 18.9131 16.3346 18.7571 15.9865L16.7143 11.8243L10.9107 23.5541C10.756 23.9009 10.5319 24.1614 10.2384 24.3354C9.945 24.5095 9.62743 24.5959 9.28571 24.5946Z" fill="#022ABF"/>
</svg>
