<svg xmlns="http://www.w3.org/2000/svg" width="25" height="24" viewBox="0 0 25 24" fill="none">
<path d="M21.2595 18.7715C21.2595 18.7715 20.1009 19.9095 19.8169 20.2432C19.3544 20.7367 18.8094 20.9698 18.0949 20.9698C18.0263 20.9698 17.953 20.9698 17.8843 20.9653C16.5241 20.8784 15.2601 20.3483 14.3121 19.8958C11.72 18.6435 9.4439 16.8657 7.55248 14.6125C5.99081 12.7341 4.94663 10.9974 4.2551 9.13265C3.82919 7.99464 3.67348 7.10799 3.74217 6.27162C3.78797 5.73689 3.99406 5.29357 4.37417 4.91423L5.93585 3.35574C6.16025 3.14551 6.3984 3.03125 6.63196 3.03125C6.92048 3.03125 7.15405 3.20492 7.3006 3.35117C7.30518 3.35574 7.30976 3.36031 7.31434 3.36489C7.5937 3.62539 7.85932 3.89504 8.13868 4.18298C8.28065 4.32923 8.4272 4.47548 8.57376 4.6263L9.82401 5.874C10.3095 6.35846 10.3095 6.80635 9.82401 7.29081C9.6912 7.42335 9.56297 7.55589 9.43016 7.68386C9.04546 8.0769 9.34766 7.77532 8.94923 8.13181C8.94007 8.14095 8.93091 8.14552 8.92633 8.15466C8.53248 8.54771 8.60575 8.93162 8.68819 9.19213C8.69277 9.20584 8.69735 9.21955 8.70193 9.23326C9.02708 10.0194 9.48505 10.7598 10.1812 11.6418L10.1857 11.6464C11.4497 13.2003 12.7824 14.4115 14.2525 15.3392C14.4403 15.4581 14.6326 15.554 14.8158 15.6454C14.9807 15.7277 15.1364 15.8054 15.2692 15.8877C15.2875 15.8968 15.3059 15.9105 15.3242 15.9197C15.4799 15.9974 15.6264 16.0339 15.7776 16.0339C16.1577 16.0339 16.3958 15.7963 16.4737 15.7186L17.3714 14.8227C17.5271 14.6673 17.7744 14.48 18.0629 14.48C18.3468 14.48 18.5804 14.6582 18.7224 14.8136C18.7269 14.8182 18.7269 14.8182 18.7315 14.8227L21.2549 17.341C21.7266 17.8072 21.2595 18.7715 21.2595 18.7715Z" stroke="#92A0C3" stroke-width="2" stroke-linecap="round" stroke-linejoin="round"/>
</svg>