<svg width="24" height="24" viewBox="0 0 24 24" fill="none" xmlns="http://www.w3.org/2000/svg">
<g clip-path="url(#clip0_1850_40095)">
<path fill-rule="evenodd" clip-rule="evenodd" d="M12.8004 4.19968C11.05 4.19968 9.37123 4.89504 8.13349 6.13278C6.89575 7.37052 6.20039 9.04925 6.20039 10.7997C6.20039 12.5501 6.89575 14.2288 8.13349 15.4666C9.37123 16.7043 11.05 17.3997 12.8004 17.3997C14.5508 17.3997 16.2296 16.7043 17.4673 15.4666C18.705 14.2288 19.4004 12.5501 19.4004 10.7997C19.4004 9.04925 18.705 7.37052 17.4673 6.13278C16.2296 4.89504 14.5508 4.19968 12.8004 4.19968ZM4.40039 10.7997C4.4005 9.45649 4.72273 8.1329 5.34003 6.93996C5.95733 5.74701 6.8517 4.7195 7.94814 3.9436C9.04457 3.1677 10.3111 2.66605 11.6414 2.48073C12.9718 2.29541 14.3272 2.43181 15.5939 2.87851C16.8607 3.32521 18.0018 4.06917 18.9216 5.04798C19.8415 6.0268 20.5132 7.21192 20.8804 8.50395C21.2476 9.79598 21.2996 11.1572 21.0321 12.4735C20.7645 13.7898 20.1852 15.0227 19.3428 16.0689L23.3364 20.0637C23.4248 20.1461 23.4957 20.2454 23.5449 20.3558C23.5941 20.4662 23.6206 20.5854 23.6227 20.7063C23.6248 20.8271 23.6026 20.9471 23.5573 21.0592C23.5121 21.1713 23.4447 21.2731 23.3592 21.3585C23.2738 21.444 23.172 21.5114 23.0599 21.5566C22.9478 21.6019 22.8278 21.6241 22.707 21.622C22.5861 21.6199 22.4669 21.5934 22.3565 21.5442C22.2461 21.495 22.1468 21.4241 22.0644 21.3357L18.0696 17.3421C16.8354 18.3361 15.3453 18.9608 13.7712 19.144C12.1971 19.3271 10.6033 19.0613 9.17393 18.3771C7.74452 17.693 6.53779 16.6184 5.69312 15.2776C4.84845 13.9368 4.40028 12.3844 4.40039 10.7997Z" fill="#AAB1CC"/>
</g>
<defs>
<clipPath id="clip0_1850_40095">
<rect width="24" height="24" fill="white"/>
</clipPath>
</defs>
</svg>
