<svg width="35" height="35" viewBox="0 0 35 35" fill="none" xmlns="http://www.w3.org/2000/svg">
<path d="M17.9487 31.4377C17.4402 31.4377 17.0142 31.2667 16.6708 30.9247C16.3273 30.5827 16.155 30.16 16.1538 29.6565V22.5318C16.1538 22.0271 16.3262 21.6044 16.6708 21.2636C17.0154 20.9228 17.4414 20.7518 17.9487 20.7506H22.4359C22.9444 20.7506 23.371 20.9216 23.7156 21.2636C24.0603 21.6056 24.232 22.0283 24.2308 22.5318V29.6565C24.2308 30.1611 24.0585 30.5845 23.7138 30.9265C23.3692 31.2684 22.9432 31.4388 22.4359 31.4377H17.9487ZM18.8461 28.7659H21.5385V23.4224H18.8461V28.7659ZM33.6538 35H28.7179C28.2094 35 27.7834 34.829 27.44 34.487C27.0966 34.145 26.9243 33.7223 26.9231 33.2188V30.1018C26.9231 29.5971 27.0954 29.1744 27.44 28.8336C27.7846 28.4928 28.2106 28.3218 28.7179 28.3206H32.3077V26.9847H28.2692C27.8803 26.9847 27.5591 26.8583 27.3054 26.6053C27.0517 26.3524 26.9243 26.0336 26.9231 25.6488C26.9231 25.2629 27.0505 24.9441 27.3054 24.6924C27.5602 24.4406 27.8815 24.3142 28.2692 24.313H33.2051C33.7137 24.313 34.1402 24.484 34.4849 24.8259C34.8295 25.1679 35.0012 25.5907 35 26.0941V29.2112C35 29.7159 34.8277 30.1392 34.4831 30.4812C34.1385 30.8231 33.7125 30.9935 33.2051 30.9924H29.6154V32.3282H33.6538C34.0427 32.3282 34.3646 32.4547 34.6195 32.7076C34.8744 32.9605 35.0012 33.2794 35 33.6641C35 34.05 34.8726 34.3695 34.6177 34.6224C34.3628 34.8753 34.0415 35.0012 33.6538 35ZM14.359 0C14.5983 0 14.8155 0.0374049 15.0105 0.112214C15.2056 0.187023 15.3922 0.298049 15.5705 0.445293C16.6474 1.39525 17.7471 2.40458 18.8695 3.47328C19.9919 4.54198 21.0688 5.66293 22.1003 6.83613C23.1317 8.00814 24.089 9.22527 24.972 10.4875C25.8551 11.7498 26.6102 13.0483 27.2372 14.3829C27.4466 14.8282 27.4544 15.2735 27.2605 15.7188C27.0667 16.1641 26.7298 16.461 26.25 16.6094C25.7714 16.7578 25.3149 16.7282 24.8805 16.5204C24.4461 16.3125 24.1099 15.986 23.8718 15.5407C23.3632 14.472 22.7428 13.4259 22.0105 12.4023C21.2782 11.3787 20.4855 10.3765 19.6323 9.39567C18.7791 8.41603 17.9038 7.48091 17.0064 6.59033C16.109 5.69974 15.2265 4.86853 14.359 4.09669C10.7991 7.33248 8.11461 10.3159 6.30538 13.0471C4.49615 15.7782 3.59094 18.2273 3.58974 20.3944C3.58974 22.799 4.2329 24.9809 5.51923 26.9402C6.80555 28.8995 8.63034 30.2354 10.9936 30.9478C11.5021 31.0963 11.906 31.386 12.2051 31.817C12.5043 32.2481 12.5641 32.7005 12.3846 33.1743C12.1752 33.679 11.8091 34.0352 11.2862 34.243C10.7632 34.4508 10.217 34.4656 9.64743 34.2875C6.62607 33.3376 4.26282 31.5493 2.55769 28.9226C0.852564 26.296 0 23.4533 0 20.3944C0 18.4648 0.43376 16.5572 1.30128 14.6715C2.1688 12.7858 3.26068 10.991 4.57692 9.28702C5.89316 7.57947 7.32188 5.9687 8.86308 4.45471C10.4043 2.94071 11.8324 1.60424 13.1474 0.445293C13.3269 0.296862 13.5142 0.185836 13.7092 0.112214C13.9043 0.0385924 14.1209 0.00118745 14.359 0Z" fill="#022ABF"/>
</svg>
