<svg width="22" height="40" viewBox="0 0 22 40" fill="none" xmlns="http://www.w3.org/2000/svg">
<path d="M11 3.5C9.80653 3.5 8.66194 3.97411 7.81802 4.81802C6.97411 5.66193 6.5 6.80653 6.5 8V22.9625L6.0005 23.4095C4.86822 24.4221 4.07009 25.7546 3.71172 27.2307C3.35335 28.7068 3.45165 30.2569 3.99359 31.676C4.53554 33.095 5.49559 34.316 6.74671 35.1774C7.99782 36.0389 9.48101 36.5001 11 36.5001C12.519 36.5001 14.0022 36.0389 15.2533 35.1774C16.5044 34.316 17.4645 33.095 18.0064 31.676C18.5484 30.2569 18.6467 28.7068 18.2883 27.2307C17.9299 25.7546 17.1318 24.4221 15.9995 23.4095L15.5 22.9625V8C15.5 6.80653 15.0259 5.66193 14.182 4.81802C13.3381 3.97411 12.1935 3.5 11 3.5ZM3.50001 8C3.50001 6.01088 4.29018 4.10322 5.6967 2.6967C7.10323 1.29018 9.01088 0.5 11 0.5C12.9891 0.5 14.8968 1.29018 16.3033 2.6967C17.7098 4.10322 18.5 6.01088 18.5 8V21.6515C19.947 23.1283 20.9258 24.9995 21.3136 27.0304C21.7015 29.0613 21.4811 31.1615 20.6801 33.0676C19.8791 34.9737 18.5333 36.601 16.8112 37.7453C15.0891 38.8895 13.0676 39.5 11 39.5C8.93243 39.5 6.91086 38.8895 5.18881 37.7453C3.46676 36.601 2.12086 34.9737 1.3199 33.0676C0.518934 31.1615 0.298551 29.0613 0.686383 27.0304C1.07422 24.9995 2.053 23.1283 3.50001 21.6515V8ZM9.5 14C9.5 13.6022 9.65804 13.2206 9.93935 12.9393C10.2206 12.658 10.6022 12.5 11 12.5C11.3978 12.5 11.7794 12.658 12.0607 12.9393C12.342 13.2206 12.5 13.6022 12.5 14V24.755C13.5012 25.1089 14.3451 25.8053 14.8825 26.7212C15.4199 27.6371 15.6162 28.7135 15.4367 29.7602C15.2572 30.8068 14.7135 31.7563 13.9016 32.4408C13.0897 33.1253 12.0619 33.5007 11 33.5007C9.93808 33.5007 8.91034 33.1253 8.09845 32.4408C7.28656 31.7563 6.7428 30.8068 6.56329 29.7602C6.38378 28.7135 6.58007 27.6371 7.11747 26.7212C7.65486 25.8053 8.49877 25.1089 9.5 24.755V14Z" fill="#022ABF"/>
</svg>
