<svg width="25" height="24" viewBox="0 0 33 32" fill="none" xmlns="http://www.w3.org/2000/svg">
    <path d="M25.8327 13.334V16.0007C25.8327 18.476 24.8494 20.85 23.099 22.6003C21.3487 24.3507 18.9747 25.334 16.4993 25.334M16.4993 25.334C14.024 25.334 11.65 24.3507 9.89969 22.6003C8.14935 20.85 7.16602 18.476 7.16602 16.0007V13.334M16.4993 25.334V30.6673M11.166 30.6673H21.8327M16.4993 1.33398C15.4385 1.33398 14.4211 1.75541 13.6709 2.50556C12.9208 3.2557 12.4993 4.27312 12.4993 5.33398V16.0007C12.4993 17.0615 12.9208 18.0789 13.6709 18.8291C14.4211 19.5792 15.4385 20.0006 16.4993 20.0006C17.5602 20.0006 18.5776 19.5792 19.3278 18.8291C20.0779 18.0789 20.4993 17.0615 20.4993 16.0007V5.33398C20.4993 4.27312 20.0779 3.2557 19.3278 2.50556C18.5776 1.75541 17.5602 1.33398 16.4993 1.33398Z" stroke="white" stroke-width="2" stroke-linecap="round" stroke-linejoin="round"/>
</svg>
