<svg width="35" height="35" viewBox="0 0 35 35" fill="none" xmlns="http://www.w3.org/2000/svg">
<path d="M30.675 2H4.325C3.70837 2 3.117 2.24495 2.68098 2.68098C2.24495 3.117 2 3.70837 2 4.325V30.675C2 31.2916 2.24495 31.883 2.68098 32.319C3.117 32.755 3.70837 33 4.325 33H30.675C31.2916 33 31.883 32.755 32.319 32.319C32.755 31.883 33 31.2916 33 30.675V4.325C33 3.70837 32.755 3.117 32.319 2.68098C31.883 2.24495 31.2916 2 30.675 2Z" stroke="#022ABF" stroke-width="3.5" stroke-linejoin="round"/>
<path d="M8.19995 13.6671C10.7768 10.5671 13.8768 9.01709 17.5 9.01709C21.1231 9.01709 24.2231 10.5671 26.8 13.6671" stroke="#022ABF" stroke-width="3.5" stroke-linecap="round"/>
<path d="M17.5 22.9249C18.1167 22.9249 18.7081 22.6799 19.1441 22.2439C19.5801 21.8079 19.825 21.2165 19.825 20.5999C19.825 19.9833 19.5801 19.3919 19.1441 18.9559C18.7081 18.5199 18.1167 18.2749 17.5 18.2749C16.8834 18.2749 16.292 18.5199 15.856 18.9559C15.42 19.3919 15.175 19.9833 15.175 20.5999C15.175 21.2165 15.42 21.8079 15.856 22.2439C16.292 22.6799 16.8834 22.9249 17.5 22.9249Z" fill="#022ABF"/>
<path d="M13.625 15.1748L17.5062 20.5998" stroke="#022ABF" stroke-width="3.5" stroke-linecap="round"/>
</svg>
